# xmcd CD database file
#
# Track frame offsets:
#	151
#	19041
#	40160
#	69618
#	98626
#	124755
#	145506
#	172004
#	195002
#	226049
#	263988
#	287721
#	303050
#	317525
#	335050
#
# Disc length: 4484 seconds
#
# Revision: 2
# Processed by: cddbd v1.4b41PL1 Copyright (c) Steve Scherf et al.
# Submitted via: Feurio! 1.51.11ß - http://www.feurio.com
#
DISCID=c211820f
DTITLE=John Martyn - Bremen 10.June 1983/SAPPHIRE
DYEAR=1900
DGENRE=
TTITLE0=Some People
TTITLE1=Amsterdam
TTITLE2=Solid air
TTITLE3=Sunday´s child
TTITLE4=could ...I love you more
TTITLE5=Bless the Weather
TTITLE6=Sweet little mystery
TTITLE7=On world
TTITLE8=Looking on
TTITLE9=Johnny too bad
TTITLE10=SAPPHIRE   1984
TTITLE11=Over the rainbow
TTITLE12=You know
TTITLE13=Watching her eyes
TTITLE14=Fisherman´s dream
EXTD=J.Martyn voc.gi.;Jeff Allan dr;Alan Thompson  bass,keyb.
EXTT0=
EXTT1=
EXTT2=
EXTT3=
EXTT4=
EXTT5=
EXTT6=
EXTT7=
EXTT8=
EXTT9=
EXTT10=
EXTT11=
EXTT12=
EXTT13=
EXTT14=
PLAYORDER=
